<svg width="24" height="24" viewBox="0 0 24 24" fill="none" xmlns="http://www.w3.org/2000/svg">
<g clip-path="url(#clip0_4386_93192)">
<path d="M4.25 0H19.75C22.1 0 24 1.9 24 4.25V19.75C24 22.1 22.1 24 19.75 24H4.25C1.9 24 0 22.1 0 19.75V4.25C0 1.9 1.9 0 4.25 0Z" fill="#00005B"/>
<path d="M9.63995 13.9995H5.91995L5.15995 16.3595C5.13995 16.4495 5.05995 16.5095 4.96995 16.4995H3.08995C2.97995 16.4995 2.94995 16.4395 2.97995 16.3195L6.19995 7.08953C6.22995 6.98953 6.25995 6.89953 6.29995 6.77953C6.33995 6.56953 6.35995 6.34953 6.35995 6.12953C6.34995 6.07953 6.38995 6.02953 6.43995 6.01953C6.44995 6.01953 6.45995 6.01953 6.46995 6.01953H9.02995C9.09995 6.01953 9.14995 6.04953 9.15995 6.09953L12.8099 16.3495C12.8399 16.4595 12.8099 16.5095 12.7099 16.5095H10.6199C10.5499 16.5195 10.4799 16.4695 10.4599 16.3995L9.63995 13.9995ZM6.49995 12.0095H9.03995C8.97995 11.7995 8.89995 11.5495 8.80995 11.2895C8.71995 11.0195 8.62995 10.7295 8.53995 10.4295C8.43995 10.1195 8.34995 9.81953 8.24995 9.50953C8.14995 9.19953 8.05995 8.90953 7.97995 8.61953C7.89995 8.33953 7.82995 8.07953 7.75995 7.83953H7.73995C7.64995 8.26953 7.53995 8.69953 7.39995 9.12953C7.24995 9.60953 7.09995 10.1095 6.93995 10.6095C6.80995 11.1195 6.64995 11.5895 6.49995 12.0095Z" fill="#9999FF"/>
<path d="M18.7401 13.0799H15.5701C15.6101 13.3899 15.7101 13.6999 15.8801 13.9699C16.0601 14.2399 16.3101 14.4499 16.6101 14.5699C17.0101 14.7399 17.4501 14.8299 17.8901 14.8199C18.2401 14.8099 18.5901 14.7799 18.9301 14.7099C19.2401 14.6699 19.5401 14.5899 19.8201 14.4799C19.8701 14.4399 19.9001 14.4599 19.9001 14.5599V16.0899C19.9001 16.1299 19.8901 16.1699 19.8801 16.2099C19.8601 16.2399 19.8401 16.2599 19.8101 16.2799C19.4901 16.4199 19.1601 16.5199 18.8101 16.5799C18.3401 16.6699 17.8701 16.7099 17.3901 16.6999C16.6301 16.6999 15.9901 16.5799 15.4701 16.3499C14.9801 16.1399 14.5501 15.8099 14.2101 15.3999C13.8901 15.0099 13.6601 14.5699 13.5201 14.0899C13.3801 13.6199 13.3101 13.1299 13.3101 12.6299C13.3101 12.0899 13.3901 11.5599 13.5601 11.0399C13.7201 10.5399 13.9701 10.0799 14.3101 9.66986C14.6401 9.26986 15.0501 8.94986 15.5201 8.71986C15.9901 8.48986 16.5501 8.40986 17.1901 8.40986C17.7201 8.39986 18.2501 8.49986 18.7401 8.71986C19.1501 8.89986 19.5101 9.16986 19.7901 9.51986C20.0501 9.85986 20.2601 10.2399 20.3901 10.6599C20.5201 11.0599 20.5801 11.4699 20.5801 11.8799C20.5801 12.1199 20.5701 12.3299 20.5601 12.5199C20.5401 12.7099 20.5301 12.8499 20.5201 12.9399C20.5101 13.0099 20.4501 13.0699 20.3801 13.0699C20.3201 13.0699 20.2101 13.0799 20.0501 13.0899C19.8901 13.1099 19.7001 13.1199 19.4701 13.1199C19.2401 13.1199 19.0001 13.0799 18.7401 13.0799ZM15.5701 11.6199H17.6801C17.9401 11.6199 18.1301 11.6199 18.2501 11.6099C18.3301 11.5999 18.4101 11.5799 18.4801 11.5299V11.4299C18.4801 11.2999 18.4601 11.1799 18.4201 11.0599C18.2401 10.4999 17.7101 10.1199 17.1201 10.1399C16.5701 10.1099 16.0501 10.3999 15.7901 10.8999C15.6701 11.1299 15.6001 11.3699 15.5701 11.6199Z" fill="#9999FF"/>
</g>
<defs>
<clipPath id="clip0_4386_93192">
<rect width="24" height="24" fill="white"/>
</clipPath>
</defs>
</svg>
