<svg width="24" height="24" viewBox="0 0 24 24" fill="none" xmlns="http://www.w3.org/2000/svg">
<g clip-path="url(#clip0_4921_114398)">
<path d="M1.6738 18.5669C0.848565 18.5669 0 19.2298 0 20.3901C0 21.4509 0.746087 22.2001 1.6738 22.2001C2.43959 22.2001 2.78089 21.6849 2.78089 21.6849V21.9094C2.78089 22.0156 2.88101 22.134 3.00494 22.134H3.55849V18.6462H2.78089V19.0888C2.78089 19.0888 2.43673 18.5669 1.6738 18.5669ZM1.81232 19.2801C2.49167 19.2801 2.84802 19.879 2.84802 20.3898C2.84802 20.9588 2.42492 21.4992 1.81376 21.4992C1.30287 21.4992 0.791107 21.0844 0.791107 20.3823C0.791107 19.7486 1.23151 19.2801 1.81232 19.2801Z" fill="black"/>
<path d="M4.63933 22.1341C4.51987 22.1341 4.41528 22.0482 4.41528 21.9095V18.6462H5.19287V19.0779C5.36908 18.8124 5.71332 18.5659 6.24171 18.5659C7.10533 18.5659 7.5652 19.256 7.5652 19.9014V22.1341H7.02483C6.88314 22.1341 6.7876 22.0152 6.7876 21.8963V20.0731C6.7876 19.7154 6.56897 19.281 6.06334 19.281C5.51775 19.281 5.19287 19.7979 5.19287 20.2845V22.1341H4.63933Z" fill="black"/>
<path d="M9.83201 18.567C9.00677 18.567 8.1582 19.2299 8.1582 20.3902C8.1582 21.451 8.90429 22.2002 9.83201 22.2002C10.5978 22.2002 10.9391 21.685 10.9391 21.685V21.9096C10.9391 22.0157 11.0392 22.1342 11.1632 22.1342H11.7167V16.9023H10.9391V19.0889C10.9391 19.0889 10.5949 18.567 9.83201 18.567ZM9.97053 19.2802C10.6499 19.2802 11.0062 19.8791 11.0062 20.39C11.0062 20.959 10.5831 21.4993 9.97197 21.4993C9.46108 21.4993 8.94931 21.0846 8.94931 20.3825C8.94931 19.7487 9.38971 19.2802 9.97053 19.2802V19.2802Z" fill="black"/>
<path d="M12.7973 22.134C12.6778 22.134 12.5732 22.0481 12.5732 21.9094V18.6461H13.3508V19.2274C13.4847 18.9017 13.7735 18.6064 14.2866 18.6064C14.4296 18.6064 14.5634 18.6329 14.5634 18.6329V19.4388C14.5634 19.4388 14.3964 19.3727 14.1943 19.3727C13.6487 19.3727 13.3508 19.8896 13.3508 20.3762V22.134H12.7973Z" fill="black"/>
<path d="M19.2817 22.1339C19.1622 22.1339 19.0576 22.048 19.0576 21.9093V18.646H19.8352V22.1339H19.2817Z" fill="black"/>
<path d="M22.1152 18.567C21.29 18.567 20.4414 19.2299 20.4414 20.3902C20.4414 21.451 21.1875 22.2002 22.1152 22.2002C22.881 22.2002 23.2223 21.685 23.2223 21.685V21.9096C23.2223 22.0157 23.3224 22.1342 23.4464 22.1342H23.9999V16.9023H23.2223V19.0889C23.2223 19.0889 22.8781 18.567 22.1152 18.567V18.567ZM22.2537 19.2802C22.9331 19.2802 23.2894 19.8791 23.2894 20.39C23.2894 20.959 22.8663 21.4993 22.2552 21.4993C21.7443 21.4993 21.2325 21.0846 21.2325 20.3825C21.2325 19.7487 21.6729 19.2802 22.2537 19.2802Z" fill="black"/>
<path d="M19.4403 17.8939C19.7244 17.8939 19.9546 17.6631 19.9546 17.3784C19.9546 17.0936 19.7244 16.8628 19.4403 16.8628C19.1563 16.8628 18.926 17.0936 18.926 17.3784C18.926 17.6631 19.1563 17.8939 19.4403 17.8939Z" fill="black"/>
<path d="M16.6143 18.5659C15.75 18.5659 14.8005 19.2126 14.8005 20.3841C14.8005 21.4516 15.6093 22.2004 16.6124 22.2004C17.8487 22.2004 18.4523 21.2042 18.4523 20.3909C18.4523 19.3928 17.675 18.5659 16.6143 18.5659ZM16.6171 19.2939C17.2148 19.2939 17.6606 19.7767 17.6606 20.3863C17.6606 21.0064 17.1873 21.485 16.6189 21.485C16.0912 21.485 15.5783 21.0545 15.5783 20.3967C15.5783 19.728 16.0661 19.2939 16.6171 19.2939V19.2939Z" fill="black"/>
<path d="M17.8575 5.26231L19.847 1.8075C19.9593 1.61382 19.8914 1.3678 19.7008 1.25526C19.5102 1.14271 19.2622 1.20814 19.1525 1.40182L17.1369 4.90113C15.599 4.19708 13.868 3.80449 12.0064 3.80449C10.1448 3.80449 8.41375 4.19708 6.87592 4.90113L4.86028 1.40182C4.74801 1.20814 4.50259 1.14271 4.30938 1.25526C4.11617 1.3678 4.0509 1.61382 4.16317 1.8075L6.15269 5.26231C2.72193 7.12582 0.39821 10.6068 0.0144043 14.6819H23.9984C23.6146 10.6068 21.2908 7.12582 17.8575 5.26231ZM6.49994 11.3056C5.94382 11.3056 5.49474 10.8528 5.49474 10.298C5.49474 9.74049 5.94643 9.29032 6.49994 9.29032C7.05607 9.29032 7.50515 9.74311 7.50515 10.298C7.50777 10.8528 7.05607 11.3056 6.49994 11.3056ZM17.5102 11.3056C16.9541 11.3056 16.505 10.8528 16.505 10.298C16.505 9.74049 16.9567 9.29032 17.5102 9.29032C18.0664 9.29032 18.5154 9.74311 18.5154 10.298C18.518 10.8528 18.0664 11.3056 17.5102 11.3056Z" fill="#32DE84"/>
</g>
<defs>
<clipPath id="clip0_4921_114398">
<rect width="24" height="21" fill="white" transform="translate(0 1.2002)"/>
</clipPath>
</defs>
</svg>
