<svg width="24" height="24" viewBox="0 0 24 24" fill="none" xmlns="http://www.w3.org/2000/svg">
<g clip-path="url(#clip0_4386_93196)">
<g clip-path="url(#clip1_4386_93196)">
<path d="M12 24C18.6274 24 24 18.6274 24 12C24 5.37258 18.6274 0 12 0C5.37258 0 0 5.37258 0 12C0 18.6274 5.37258 24 12 24Z" fill="#7D2AE7"/>
<path d="M12 24C18.6274 24 24 18.6274 24 12C24 5.37258 18.6274 0 12 0C5.37258 0 0 5.37258 0 12C0 18.6274 5.37258 24 12 24Z" fill="url(#paint0_radial_4386_93196)"/>
<path d="M12 24C18.6274 24 24 18.6274 24 12C24 5.37258 18.6274 0 12 0C5.37258 0 0 5.37258 0 12C0 18.6274 5.37258 24 12 24Z" fill="url(#paint1_radial_4386_93196)"/>
<path d="M12 24C18.6274 24 24 18.6274 24 12C24 5.37258 18.6274 0 12 0C5.37258 0 0 5.37258 0 12C0 18.6274 5.37258 24 12 24Z" fill="url(#paint2_radial_4386_93196)"/>
<path d="M12 24C18.6274 24 24 18.6274 24 12C24 5.37258 18.6274 0 12 0C5.37258 0 0 5.37258 0 12C0 18.6274 5.37258 24 12 24Z" fill="url(#paint3_radial_4386_93196)"/>
<path d="M21.5714 12.6577C21.5392 12.6577 21.5105 12.6793 21.4963 12.7222C21.3016 13.2762 21.0389 13.6069 20.8227 13.6069C20.6986 13.6069 20.6484 13.4685 20.6484 13.2511C20.6484 12.7091 20.9745 11.558 21.1368 11.0327C21.156 10.9785 21.1668 10.9217 21.1691 10.8643C21.1691 10.7115 21.0855 10.6362 20.879 10.6362C20.6723 10.6362 20.4156 10.7246 20.184 11.1329C20.1027 10.7724 19.8592 10.6147 19.5189 10.6147C19.1261 10.6147 18.7464 10.8679 18.4335 11.2774C18.1207 11.687 17.7542 11.8231 17.4771 11.7562C17.6765 11.2703 17.7494 10.9061 17.7494 10.6362C17.7494 10.2123 17.5404 9.95683 17.2025 9.95683C16.6878 9.95683 16.3917 10.4476 16.3917 10.9634C16.3917 11.3622 16.5721 11.773 16.9709 11.9724C16.6377 12.7258 16.1506 13.4076 15.9655 13.4076C15.7267 13.4076 15.6562 12.2398 15.6706 11.404C15.6777 10.9252 15.7183 10.9001 15.7183 10.7544C15.7183 10.6721 15.6634 10.6147 15.4473 10.6147C14.9422 10.6147 14.7846 11.0434 14.7619 11.5353C14.7531 11.7219 14.724 11.9069 14.6747 12.087C14.4622 12.8416 14.0276 13.4135 13.7434 13.4135C13.6109 13.4135 13.5763 13.281 13.5763 13.1091C13.5763 12.567 13.8795 11.8876 13.8795 11.3097C13.8795 10.8834 13.6932 10.6147 13.3409 10.6147C12.9279 10.6147 12.3798 11.1079 11.8616 12.0297C12.0323 11.324 12.1016 10.6398 11.5977 10.6398C11.4881 10.6415 11.3804 10.6693 11.2837 10.721C11.2144 10.7568 11.1774 10.8213 11.1822 10.8929C11.2299 11.6464 10.5756 13.5723 9.95473 13.5723C9.8413 13.5723 9.78756 13.4506 9.78756 13.2524C9.78756 12.7102 10.1111 11.5616 10.2735 11.035C10.2933 10.9777 10.3042 10.9177 10.3058 10.8571C10.3058 10.7138 10.2174 10.6398 10.0156 10.6398C9.79353 10.6398 9.55353 10.7246 9.3207 11.1329C9.2395 10.7724 8.99591 10.6147 8.65682 10.6147C8.0992 10.6147 7.47472 11.2046 7.20129 11.9747C6.83473 13.0016 6.09561 13.9927 5.10099 13.9927C4.1983 13.9927 3.72189 13.2416 3.72189 12.0559C3.72189 10.3413 4.9804 8.9419 5.91294 8.9419C6.3595 8.9419 6.57204 9.22608 6.57204 9.6619C6.57204 10.1897 6.27831 10.4344 6.27831 10.635C6.27831 10.6959 6.32845 10.7568 6.42995 10.7568C6.83591 10.7568 7.31234 10.2804 7.31234 9.63086C7.31234 8.98131 6.78577 8.50488 5.85204 8.50488C4.31054 8.50488 2.7583 10.0571 2.7583 12.0452C2.7583 13.6273 3.5392 14.5813 4.88845 14.5813C5.80905 14.5813 6.61383 13.8661 7.04845 13.029C7.09741 13.7228 7.41145 14.0834 7.89025 14.0834C8.31651 14.0834 8.66159 13.8303 8.92547 13.3837C9.02696 13.8506 9.29562 14.0799 9.64547 14.0799C10.0467 14.0799 10.381 13.8255 10.6998 13.3538C10.695 13.724 10.7798 14.0727 11.101 14.0727C11.2526 14.0727 11.4341 14.038 11.4664 13.9055C11.8031 12.5073 12.6401 11.3658 12.8957 11.3658C12.9708 11.3658 12.9912 11.4374 12.9912 11.5246C12.9912 11.9043 12.7236 12.6828 12.7236 13.1795C12.7236 13.718 12.9518 14.0727 13.4234 14.0727C13.9464 14.0727 14.4777 13.4326 14.8323 12.4965C14.9434 13.3706 15.1834 14.0762 15.5571 14.0762C16.0179 14.0762 16.836 13.1079 17.3314 12.081C17.5249 12.1061 17.8174 12.1001 18.0969 11.9019C17.9786 12.204 17.9081 12.5347 17.9081 12.8643C17.9081 13.8171 18.3619 14.0834 18.7536 14.0834C19.1798 14.0834 19.5249 13.8303 19.7887 13.3837C19.8759 13.786 20.0979 14.0786 20.5076 14.0786C21.1475 14.0786 21.7039 13.4243 21.7039 12.8869C21.7039 12.745 21.643 12.6577 21.5714 12.6577ZM8.28189 13.5568C8.02279 13.5568 7.92129 13.2953 7.92129 12.9073C7.92129 12.2338 8.38218 11.1067 8.87055 11.1067C9.08308 11.1067 9.16428 11.3586 9.16428 11.6655C9.16428 12.3497 8.72607 13.5568 8.28189 13.5568ZM17.1393 11.5437C16.9851 11.3598 16.9291 11.1091 16.9291 10.887C16.9291 10.6123 17.0294 10.3807 17.15 10.3807C17.2705 10.3807 17.3064 10.4989 17.3064 10.6637C17.3064 10.9383 17.2085 11.3419 17.1393 11.5437ZM19.144 13.5568C18.8861 13.5568 18.7845 13.2572 18.7845 12.9073C18.7845 12.2565 19.2454 11.1067 19.7374 11.1067C19.9499 11.1067 20.0263 11.355 20.0263 11.6655C20.0263 12.3497 19.5953 13.5568 19.144 13.5568Z" fill="white"/>
</g>
</g>
<defs>
<radialGradient id="paint0_radial_4386_93196" cx="0" cy="0" r="1" gradientUnits="userSpaceOnUse" gradientTransform="translate(4.63579 21.2716) rotate(-49.4156) scale(18.562)">
<stop stop-color="#6420FF"/>
<stop offset="1" stop-color="#6420FF" stop-opacity="0"/>
</radialGradient>
<radialGradient id="paint1_radial_4386_93196" cx="0" cy="0" r="1" gradientUnits="userSpaceOnUse" gradientTransform="translate(6.35369 2.72842) rotate(54.7035) scale(20.932)">
<stop stop-color="#00C4CC"/>
<stop offset="1" stop-color="#00C4CC" stop-opacity="0"/>
</radialGradient>
<radialGradient id="paint2_radial_4386_93196" cx="0" cy="0" r="1" gradientUnits="userSpaceOnUse" gradientTransform="translate(4.63579 21.2716) rotate(-45.1954) scale(18.3373 8.43355)">
<stop stop-color="#6420FF"/>
<stop offset="1" stop-color="#6420FF" stop-opacity="0"/>
</radialGradient>
<radialGradient id="paint3_radial_4386_93196" cx="0" cy="0" r="1" gradientUnits="userSpaceOnUse" gradientTransform="translate(9.81474 3.23368) rotate(66.5198) scale(18.8951 31.6535)">
<stop stop-color="#00C4CC" stop-opacity="0.725916"/>
<stop offset="0.0001" stop-color="#00C4CC"/>
<stop offset="1" stop-color="#00C4CC" stop-opacity="0"/>
</radialGradient>
<clipPath id="clip0_4386_93196">
<rect width="24" height="24" fill="white"/>
</clipPath>
<clipPath id="clip1_4386_93196">
<rect width="24" height="24" fill="white"/>
</clipPath>
</defs>
</svg>
