<svg width="24" height="24" viewBox="0 0 24 24" fill="none" xmlns="http://www.w3.org/2000/svg">
<g clip-path="url(#clip0_4386_93205)">
<path d="M12.2 12C12.2 9.7909 13.9908 8 16.2 8C18.4091 8 20.2 9.7909 20.2 12C20.2 14.2092 18.4091 16 16.2 16C13.9908 16 12.2 14.2092 12.2 12Z" fill="#1ABCFE"/>
<path d="M4.19995 20C4.19995 17.7909 5.99081 16 8.19995 16H12.2V20C12.2 22.2092 10.4091 24 8.19995 24C5.99081 24 4.19995 22.2092 4.19995 20Z" fill="#0ACF83"/>
<path d="M12.2 0V7.99997H16.2C18.4091 7.99997 20.2 6.20913 20.2 4C20.2 1.79086 18.4091 0 16.2 0H12.2Z" fill="#FF7262"/>
<path d="M4.19995 4C4.19995 6.20914 5.99081 7.99998 8.19995 7.99998H12.2V0H8.19995C5.99081 0 4.19995 1.79086 4.19995 4Z" fill="#F24E1E"/>
<path d="M4.19995 12C4.19995 14.2092 5.99081 16 8.19995 16H12.2V8H8.19995C5.99081 8 4.19995 9.7909 4.19995 12Z" fill="#A259FF"/>
</g>
<defs>
<clipPath id="clip0_4386_93205">
<rect width="24" height="24" fill="white"/>
</clipPath>
</defs>
</svg>
