<svg width="24" height="24" viewBox="0 0 24 24" fill="none" xmlns="http://www.w3.org/2000/svg">
<g clip-path="url(#clip0_4567_13885)">
<path d="M12.0001 0.599609C5.3735 0.599609 0 5.95033 0 12.551C0 17.8315 3.43839 22.3114 8.2064 23.8917C8.80613 24.0024 9.02631 23.6325 9.02631 23.3168C9.02631 23.0318 9.01518 22.0904 9.01001 21.0917C5.67157 21.8147 4.96712 19.6816 4.96712 19.6816C4.42125 18.3002 3.63473 17.9328 3.63473 17.9328C2.54596 17.1911 3.7168 17.2063 3.7168 17.2063C4.92181 17.2906 5.55632 18.4379 5.55632 18.4379C6.6266 20.265 8.36359 19.7368 9.04836 19.4314C9.15607 18.659 9.46706 18.1317 9.81024 17.8333C7.14486 17.5311 4.34295 16.5063 4.34295 11.9268C4.34295 10.622 4.81172 9.55587 5.57937 8.7189C5.45477 8.41788 5.04402 7.20231 5.69562 5.55609C5.69562 5.55609 6.70331 5.23488 8.9965 6.78116C9.95372 6.51635 10.9803 6.38355 12.0001 6.379C13.0199 6.38355 14.0473 6.51635 15.0063 6.78116C17.2967 5.23488 18.303 5.55609 18.303 5.55609C18.9562 7.20231 18.5452 8.41788 18.4206 8.7189C19.1901 9.55587 19.6557 10.622 19.6557 11.9268C19.6557 16.5172 16.8484 17.5279 14.1762 17.8238C14.6067 18.1947 14.9902 18.922 14.9902 20.037C14.9902 21.6361 14.9763 22.9232 14.9763 23.3168C14.9763 23.6348 15.1923 24.0075 15.8006 23.8902C20.566 22.3081 24 17.8297 24 12.551C24 5.95033 18.6273 0.599609 12.0001 0.599609ZM4.49443 17.6247C4.468 17.6841 4.3742 17.7019 4.28876 17.6611C4.20172 17.6221 4.15283 17.5412 4.18105 17.4816C4.20688 17.4204 4.30088 17.4034 4.38772 17.4444C4.47495 17.4834 4.52463 17.5651 4.49443 17.6247ZM5.0847 18.1492C5.02747 18.2021 4.91559 18.1775 4.83968 18.094C4.76119 18.0107 4.74648 17.8993 4.80451 17.8456C4.86353 17.7928 4.97203 17.8175 5.05072 17.9009C5.12921 17.9852 5.14451 18.0958 5.0847 18.1492ZM5.48965 18.8204C5.41612 18.8713 5.2959 18.8236 5.22158 18.7173C5.14805 18.611 5.14805 18.4836 5.22317 18.4325C5.29769 18.3814 5.41612 18.4273 5.49144 18.5328C5.56476 18.6409 5.56476 18.7683 5.48965 18.8204ZM6.1745 19.5977C6.10873 19.6699 5.96863 19.6505 5.86609 19.552C5.76117 19.4556 5.73196 19.3188 5.79793 19.2466C5.8645 19.1742 6.0054 19.1945 6.10873 19.2923C6.21286 19.3885 6.24465 19.5262 6.1745 19.5977ZM7.05961 19.8601C7.0306 19.9537 6.89567 19.9963 6.75975 19.9565C6.62402 19.9155 6.5352 19.8059 6.56262 19.7113C6.59084 19.6171 6.72636 19.5727 6.86328 19.6153C6.9988 19.656 7.08783 19.7649 7.05961 19.8601ZM8.0669 19.9714C8.07028 20.07 7.95502 20.1517 7.81235 20.1535C7.66887 20.1566 7.55282 20.0769 7.55123 19.9799C7.55123 19.8804 7.6639 19.7994 7.80738 19.797C7.95006 19.7943 8.0669 19.8734 8.0669 19.9714ZM9.05645 19.9336C9.07354 20.0298 8.97438 20.1286 8.8327 20.1549C8.6934 20.1802 8.56443 20.1208 8.54674 20.0254C8.52946 19.9269 8.6304 19.8281 8.7695 19.8026C8.91139 19.7781 9.03837 19.8358 9.05645 19.9336Z" fill="#161614"/>
</g>
<defs>
<clipPath id="clip0_4567_13885">
<rect width="24" height="23.3425" fill="white" transform="translate(0 0.599609)"/>
</clipPath>
</defs>
</svg>
