<svg width="1025" height="200" fill="none" xmlns="http://www.w3.org/2000/svg"><path d="M802.169 70.477h-24.274v85.319h24.274v-85.32zM802.169 42.357h-24.274v18.866h24.274V42.357zM272.763 42.357H247.39v113.439h77.479v-21.749h-52.106v-91.69zM375.011 63.378c-27.007 0-48.385 20.842-48.385 47.108s21.378 47.163 48.385 47.163c27.007 0 48.564-20.842 48.564-47.122s-21.392-47.15-48.564-47.15zm0 71.754c-13.593 0-23.739-10.326-23.739-24.715s10.146-24.632 23.739-24.632 23.739 10.504 23.739 24.632c0 14.129-10.146 24.715-23.739 24.715zM525.383 136.587c-4.352 0-8.155-2.54-8.155-10.325V90.029h23.149V70.477h-23.149v-24.59h-24.275v24.59h-31.881v-24.59h-24.275v24.59h-13.222v19.552h13.222v36.59c0 20.472 9.79 30.989 27.9 30.989a41.724 41.724 0 0 0 23.011-6.865l-6.865-17.931a22.277 22.277 0 0 1-11.602 3.803c-4.353 0-8.156-2.54-8.156-10.325V90.029h31.882v36.59c0 20.472 9.775 30.989 27.899 30.989a41.762 41.762 0 0 0 23.012-6.865l-6.865-17.931a22.202 22.202 0 0 1-11.63 3.775zM678.859 104.102c-3.707-25.47-25.909-43.484-50.307-39.928a46.513 46.513 0 0 0-38.882 34.99 46.514 46.514 0 0 0-.771 18.38c4.298 29.588 29.74 43.291 55.909 39.474a61.043 61.043 0 0 0 31.923-14.705l-11.478-15.914a44.99 44.99 0 0 1-23.177 10.518c-11.835 1.716-22.916-2.746-27.584-14.664l65.081-9.474a78.274 78.274 0 0 0-.714-8.677zm-67.058 2.238c.686-11.63 8.568-20.472 18.961-21.968a21.968 21.968 0 0 1 24.481 15.61l-43.442 6.358zM942.381 104.102c-3.707-25.47-25.922-43.484-50.307-39.928a46.514 46.514 0 0 0-31.052 18.344 46.516 46.516 0 0 0-8.601 35.026c4.298 29.588 29.726 43.291 55.91 39.474a61.004 61.004 0 0 0 31.908-14.705l-11.464-15.914a45.031 45.031 0 0 1-23.19 10.518c-11.836 1.716-22.916-2.746-27.584-14.664l65.094-9.474a82.354 82.354 0 0 0-.714-8.677zm-67.058 2.238c.687-11.63 8.554-20.472 18.962-21.968a21.885 21.885 0 0 1 24.426 15.61l-43.388 6.358zM842.028 42.357h-24.275v113.425h24.275V42.357zM992.648 99.076c-8.334-1.812-15.941-3.446-15.941-8.513 0-3.803 5.258-6.343 10.874-6.343a56.724 56.724 0 0 1 25.179 6.343l8.16-18.123a61.79 61.79 0 0 0-33.71-9.062c-17.025 0-35.149 9.79-35.149 28.27 0 17.396 14.678 23.341 32.623 28.078 7.785 2.183 15.586 3.446 15.586 8.884 0 5.437-9.243 7.606-14.872 7.606a43.84 43.84 0 0 1-28.257-9.611l-8.704 18.687c5.08 4.709 17.574 12.357 36.961 12.357 16.862 0 39.502-7.428 39.502-29.726 0-18.522-16.79-25.195-32.252-28.847zM577.915 70.477H553.64v85.319h24.275v-85.32zM577.915 42.357H553.64v18.866h24.275V42.357zM689.198 155.796h25.318v-46.353h42.934V87.928h-42.934V64.065h52.161V42.357h-77.479v113.439z" fill="#fff"/><path fill-rule="evenodd" clip-rule="evenodd" d="M50.596 0h98.774c27.943 0 50.596 22.652 50.596 50.596v98.774c0 27.943-22.653 50.596-50.596 50.596H50.596C22.653 199.966 0 177.313 0 149.37V50.596C0 22.652 22.652 0 50.596 0zm43.96 89.088c10.254-19.74 23.013-44.3 57.423-44.3a9.9 9.9 0 0 1 9.899 9.885 9.88 9.88 0 0 1-2.9 6.995 9.892 9.892 0 0 1-6.999 2.89c-20.898 0-29.012 12.728-39.886 33.667l-6.687 12.632-.011.02c-10.254 19.741-23.012 44.301-57.436 44.301a9.902 9.902 0 0 1-9.886-9.886 9.884 9.884 0 0 1 9.886-9.886c20.911 0 29.026-12.728 39.886-33.666l6.7-12.632.01-.02z" fill="#fff"/></svg>