<svg width="24" height="24" viewBox="0 0 24 24" fill="none" xmlns="http://www.w3.org/2000/svg">
<path fill-rule="evenodd" clip-rule="evenodd" d="M12 3.75C7.44365 3.75 3.75 7.44365 3.75 12C3.75 16.5563 7.44365 20.25 12 20.25C16.5563 20.25 20.25 16.5563 20.25 12C20.25 7.44365 16.5563 3.75 12 3.75ZM2.25 12C2.25 6.61522 6.61522 2.25 12 2.25C17.3848 2.25 21.75 6.61522 21.75 12C21.75 17.3848 17.3848 21.75 12 21.75C6.61522 21.75 2.25 17.3848 2.25 12Z" fill="#8795A1"/>
<path fill-rule="evenodd" clip-rule="evenodd" d="M9.12008 6.00027C8.28808 7.49789 7.75 9.61764 7.75 12C7.75 14.3824 8.28808 16.5021 9.12008 17.9997C9.96621 19.5228 11.0153 20.25 12 20.25C12.9847 20.25 14.0338 19.5228 14.8799 17.9997C15.7119 16.5021 16.25 14.3824 16.25 12C16.25 9.61764 15.7119 7.49789 14.8799 6.00027C14.0338 4.47725 12.9847 3.75 12 3.75C11.0153 3.75 9.96621 4.47725 9.12008 6.00027ZM7.80885 5.27181C8.77237 3.53747 10.2232 2.25 12 2.25C13.7768 2.25 15.2276 3.53747 16.1912 5.27181C17.1688 7.03155 17.75 9.4118 17.75 12C17.75 14.5882 17.1688 16.9684 16.1912 18.7282C15.2276 20.4625 13.7768 21.75 12 21.75C10.2232 21.75 8.77237 20.4625 7.80885 18.7282C6.83121 16.9684 6.25 14.5882 6.25 12C6.25 9.4118 6.83121 7.03155 7.80885 5.27181Z" fill="#8795A1"/>
<path fill-rule="evenodd" clip-rule="evenodd" d="M12 2.25C12.4142 2.25 12.75 2.58579 12.75 3V21C12.75 21.4142 12.4142 21.75 12 21.75C11.5858 21.75 11.25 21.4142 11.25 21V3C11.25 2.58579 11.5858 2.25 12 2.25Z" fill="#8795A1"/>
<path fill-rule="evenodd" clip-rule="evenodd" d="M2.76953 15C2.76953 14.5858 3.10532 14.25 3.51953 14.25H20.4795C20.8937 14.25 21.2295 14.5858 21.2295 15C21.2295 15.4142 20.8937 15.75 20.4795 15.75H3.51953C3.10532 15.75 2.76953 15.4142 2.76953 15Z" fill="#8795A1"/>
<path fill-rule="evenodd" clip-rule="evenodd" d="M2.76953 9C2.76953 8.58579 3.10532 8.25 3.51953 8.25H20.4795C20.8937 8.25 21.2295 8.58579 21.2295 9C21.2295 9.41421 20.8937 9.75 20.4795 9.75H3.51953C3.10532 9.75 2.76953 9.41421 2.76953 9Z" fill="#8795A1"/>
</svg>
