<svg width="24" height="24" viewBox="0 0 24 24" fill="none" xmlns="http://www.w3.org/2000/svg">
<path d="M17.797 8.45936C17.797 8.45936 15.8459 14.5565 15.6992 15.074C15.6429 14.5565 14.2218 3.59961 14.2218 3.59961C10.8947 3.59961 9.12406 5.95074 8.18797 8.45936C8.18797 8.45936 5.81955 14.579 5.62782 15.0965C5.61654 14.6128 5.26692 8.52685 5.26692 8.52685C5.06391 5.46701 2.26692 3.61086 0 3.61086L2.72932 20.215C6.21429 20.2037 8.08647 17.8526 9.06767 15.3552C9.06767 15.3552 11.1541 9.95553 11.2444 9.70804C11.2669 9.94428 12.7444 20.215 12.7444 20.215C16.2293 20.215 18.1128 18.0101 19.1278 15.6027L24 3.59961C20.5489 3.59961 18.7331 5.95074 17.797 8.45936Z" fill="black"/>
</svg>
