<svg width="24" height="24" viewBox="0 0 24 24" fill="none" xmlns="http://www.w3.org/2000/svg">
<g clip-path="url(#clip0_4921_114238)">
<path d="M21.4671 6.82371C22.3092 8.36034 22.7885 10.1238 22.7885 11.9996C22.7885 15.9799 20.6314 19.4549 17.4239 21.325L20.7191 11.7974C21.3346 10.2582 21.5396 9.02751 21.5396 7.93316C21.5396 7.53596 21.5134 7.16733 21.4671 6.82371ZM13.4867 6.94117C14.1362 6.90701 14.7214 6.83869 14.7214 6.83869C15.3028 6.76987 15.2342 5.91552 14.6526 5.94956C14.6526 5.94956 12.9051 6.0867 11.777 6.0867C10.7169 6.0867 8.93557 5.94956 8.93557 5.94956C8.35373 5.91552 8.28554 6.80428 8.86713 6.83869C8.86713 6.83869 9.41747 6.90701 9.9988 6.94117L11.6796 11.5467L9.31817 18.6277L5.38956 6.94117C6.03959 6.90701 6.62422 6.83869 6.62422 6.83869C7.20517 6.76987 7.1366 5.91552 6.55527 5.94956C6.55527 5.94956 4.8081 6.0867 3.67985 6.0867C3.47744 6.0867 3.23884 6.08175 2.98551 6.07362C4.91464 3.14487 8.23043 1.21079 11.9998 1.21079C14.8084 1.21079 17.3659 2.28469 19.2852 4.04341C19.2388 4.04061 19.1934 4.03477 19.1455 4.03477C18.0857 4.03477 17.3337 4.95794 17.3337 5.94956C17.3337 6.83869 17.8468 7.59094 18.3936 8.47995C18.8038 9.19855 19.2831 10.1216 19.2831 11.4554C19.2831 12.3787 18.9279 13.4503 18.4621 14.9432L17.3857 18.5387L13.4867 6.94117ZM11.9998 22.7892C10.9408 22.7892 9.91868 22.6339 8.95183 22.3496L12.1893 12.9433L15.5053 22.0288C15.5272 22.0822 15.5539 22.1313 15.5825 22.1775C14.4611 22.5723 13.2562 22.7892 11.9998 22.7892M1.21104 11.9996C1.21104 10.4354 1.54653 8.95056 2.14526 7.60885L7.29177 21.7093C3.69243 19.9608 1.21104 16.27 1.21104 11.9996ZM11.9998 2.82386e-07C5.38308 2.82386e-07 0 5.38296 0 11.9996C0 18.6164 5.38308 24 11.9998 24C18.6164 24 23.9997 18.6164 23.9997 11.9996C23.9997 5.38296 18.6164 2.82386e-07 11.9998 2.82386e-07" fill="#3F3C3C"/>
</g>
<defs>
<clipPath id="clip0_4921_114238">
<rect width="24" height="24" fill="white"/>
</clipPath>
</defs>
</svg>
